<?xml version="1.0" standalone="no"?>
<!DOCTYPE svg PUBLIC "-//W3C//DTD SVG 20010904//EN"
 "http://www.w3.org/TR/2001/REC-SVG-20010904/DTD/svg10.dtd">
<svg version="1.0" xmlns="http://www.w3.org/2000/svg"
 width="128.000000pt" height="128.000000pt" viewBox="0 0 128.000000 128.000000"
 preserveAspectRatio="xMidYMid meet">
<metadata>
Created by potrace 1.11, written by Peter Selinger 2001-2013
</metadata>
<g transform="translate(0.000000,128.000000) scale(0.100000,-0.100000)"
fill="#000000" stroke="none">
<path d="M59 1270 c-1 -3 -2 -283 -3 -622 l-1 -618 27 -9 c16 -6 28 -6 30 0 2
5 16 5 36 0 20 -6 30 -6 27 0 -8 11 -3 11 29 0 15 -7 26 -6 28 0 2 6 15 6 36
0 20 -6 30 -6 27 0 -8 11 -3 11 29 0 15 -7 26 -6 28 0 2 6 15 6 36 0 20 -6 30
-6 27 0 -8 11 -3 11 29 0 15 -7 26 -6 28 0 2 6 15 6 36 0 20 -6 30 -6 27 0 -8
11 -3 11 29 0 15 -7 26 -6 28 0 2 6 15 6 36 0 20 -6 30 -6 27 0 -8 11 -3 11
29 0 15 -7 26 -6 28 0 2 6 15 6 36 0 20 -6 30 -6 27 0 -4 5 -2 9 4 9 5 0 13
-5 16 -10 4 -6 13 -7 23 -1 9 5 27 7 40 5 13 -2 21 -1 19 3 -6 10 69 83 77 76
3 -4 6 -1 6 5 0 16 66 83 74 75 3 -4 6 -1 6 5 0 16 76 92 92 92 6 0 9 3 5 6
-8 8 25 44 35 38 4 -3 8 2 8 10 0 9 4 16 9 16 5 0 8 11 6 25 -1 14 3 25 9 25
7 0 7 3 1 8 -13 9 -15 42 -3 42 6 0 5 6 -2 15 -10 12 -10 15 1 15 9 0 10 3 4
8 -12 8 -13 51 -2 70 5 6 4 12 0 12 -5 0 -9 9 -9 20 0 11 4 20 9 20 5 0 4 7
-3 15 -10 12 -10 15 1 15 9 0 10 3 4 8 -12 8 -13 51 -2 70 5 6 4 12 0 12 -5 0
-9 9 -9 20 0 11 4 20 9 20 5 0 4 7 -3 15 -10 12 -10 15 1 15 9 0 10 3 4 8 -12
8 -13 51 -2 70 5 6 4 12 0 12 -5 0 -9 9 -9 20 0 11 4 20 9 20 5 0 4 7 -3 15
-10 12 -10 15 1 15 9 0 10 3 4 8 -12 8 -13 51 -2 70 5 6 4 12 0 12 -5 0 -9 9
-9 20 0 11 4 20 9 20 5 0 4 7 -3 15 -10 12 -10 15 1 15 9 0 10 3 4 8 -12 8
-13 51 -2 70 5 7 3 12 -3 12 -7 0 -8 6 -1 18 6 11 5 22 -2 32 -10 13 -85 15
-574 15 -310 0 -564 -2 -564 -5z"/>
</g>
</svg>
